<?xml version="1.0" encoding="UTF-8"?>
<svg xmlns="http://www.w3.org/2000/svg" xmlns:xlink="http://www.w3.org/1999/xlink" width="256px" height="256px" viewBox="0 0 256 256" version="1.1">
<defs>
<clipPath id="clip1">
  <path d="M 0.113281 158.347656 L 256 158.347656 L 256 256 L 0.113281 256 Z M 0.113281 158.347656 "/>
</clipPath>
<clipPath id="clip2">
  <path d="M 63.507812 0.101562 L 192.640625 0.101562 L 192.640625 135.242188 L 63.507812 135.242188 Z M 63.507812 0.101562 "/>
</clipPath>
</defs>
<g id="surface1">
<g clip-path="url(#clip1)" clip-rule="nonzero">
<path style=" stroke:none;fill-rule:nonzero;fill:rgb(98.431373%,17.647059%,17.647059%);fill-opacity:1;" d="M 15.03125 256.207031 L 0.132812 256.207031 L 0.132812 158.460938 L 29.761719 158.460938 L 29.761719 177.460938 L 15.03125 177.460938 L 15.03125 193.054688 L 28.988281 193.054688 L 28.988281 211.828125 L 15.03125 211.828125 Z M 48.109375 256.207031 L 33.8125 256.207031 L 33.8125 158.460938 L 48.109375 158.460938 Z M 54.054688 256.207031 L 54.054688 158.460938 L 76.792969 158.460938 C 80.414062 158.460938 83.210938 159.539062 85.183594 161.691406 C 87.171875 163.863281 88.503906 166.902344 89.179688 170.820312 C 89.882812 174.71875 90.234375 179.699219 90.234375 185.769531 C 90.234375 191.308594 89.6875 195.632812 88.597656 198.742188 C 87.507812 201.851562 85.609375 204.015625 82.914062 205.226562 C 85.148438 205.835938 86.769531 207.316406 87.769531 209.664062 C 88.78125 212.019531 89.285156 215.203125 89.285156 219.226562 L 89.113281 256.207031 L 74.640625 256.207031 L 74.640625 217.972656 C 74.640625 215.242188 74.242188 213.496094 73.433594 212.738281 C 72.632812 211.980469 71.167969 211.601562 69.042969 211.601562 L 69.042969 256.207031 Z M 69.128906 194.648438 L 72.660156 194.648438 C 74.726562 194.648438 75.761719 191.6875 75.761719 185.769531 C 75.761719 183.191406 75.675781 181.257812 75.503906 179.964844 C 75.332031 178.679688 75.007812 177.78125 74.539062 177.28125 C 74.089844 176.796875 73.433594 176.554688 72.574219 176.554688 L 69.128906 176.554688 Z M 125.707031 256.207031 L 95.125 256.207031 L 95.125 158.460938 L 124.757812 158.460938 L 124.757812 177.351562 L 110.199219 177.351562 L 110.199219 196.351562 L 124.15625 196.351562 L 124.15625 214.789062 L 110.199219 214.789062 L 110.199219 237.203125 L 125.707031 237.203125 Z M 145.519531 256.207031 L 130.617188 256.207031 L 130.617188 158.460938 L 160.246094 158.460938 L 160.246094 177.460938 L 145.519531 177.460938 L 145.519531 193.054688 L 159.472656 193.054688 L 159.472656 211.828125 L 145.519531 211.828125 Z M 195.050781 256.207031 L 164.984375 256.207031 L 164.984375 158.460938 L 179.804688 158.460938 L 179.804688 239.59375 L 195.050781 239.59375 Z M 212.792969 256.207031 L 198.492188 256.207031 L 198.492188 158.460938 L 212.792969 158.460938 Z M 231.640625 256.207031 L 216.566406 256.207031 L 224.492188 204.320312 L 218.203125 158.347656 L 232.675781 158.347656 L 236.550781 192.027344 L 239.910156 158.347656 L 254.46875 158.347656 L 248.09375 204.320312 L 256.019531 256.207031 L 241.03125 256.207031 L 236.378906 217.972656 Z M 231.640625 256.207031 "/>
</g>
<g clip-path="url(#clip2)" clip-rule="nonzero">
<path style=" stroke:none;fill-rule:nonzero;fill:rgb(3.921569%,3.529412%,3.921569%);fill-opacity:1;" d="M 190.15625 0 L 65.992188 0 C 64.621094 0 63.507812 1.46875 63.507812 3.28125 L 63.507812 131.960938 C 63.507812 133.773438 64.621094 135.242188 65.992188 135.242188 L 190.15625 135.242188 C 191.527344 135.242188 192.640625 133.773438 192.640625 131.960938 L 192.640625 3.28125 C 192.640625 1.46875 191.527344 0 190.15625 0 Z M 187.675781 6.558594 L 187.675781 21.570312 L 68.476562 21.570312 L 68.476562 6.558594 Z M 68.476562 128.683594 L 68.476562 28.132812 L 187.675781 28.132812 L 187.675781 128.683594 C 187.675781 128.683594 68.476562 128.683594 68.476562 128.683594 Z M 68.476562 128.683594 "/>
</g>
<path style=" stroke:none;fill-rule:nonzero;fill:rgb(3.921569%,3.529412%,3.921569%);fill-opacity:1;" d="M 73.539062 116.554688 L 131.628906 116.554688 L 131.628906 123.644531 L 73.539062 123.644531 Z M 73.539062 116.554688 "/>
<path style=" stroke:none;fill-rule:nonzero;fill:rgb(3.921569%,3.529412%,3.921569%);fill-opacity:1;" d="M 134.429688 116.554688 L 141.898438 116.554688 L 141.898438 123.644531 L 134.429688 123.644531 Z M 134.429688 116.554688 "/>
<path style=" stroke:none;fill-rule:nonzero;fill:rgb(3.921569%,3.529412%,3.921569%);fill-opacity:1;" d="M 144.519531 116.554688 L 151.984375 116.554688 L 151.984375 123.644531 L 144.519531 123.644531 Z M 144.519531 116.554688 "/>
<path style=" stroke:none;fill-rule:nonzero;fill:rgb(3.921569%,3.529412%,3.921569%);fill-opacity:1;" d="M 154.609375 116.554688 L 162.074219 116.554688 L 162.074219 123.644531 L 154.609375 123.644531 Z M 154.609375 116.554688 "/>
<path style=" stroke:none;fill-rule:nonzero;fill:rgb(3.921569%,3.529412%,3.921569%);fill-opacity:1;" d="M 164.699219 116.554688 L 172.164062 116.554688 L 172.164062 123.644531 L 164.699219 123.644531 Z M 164.699219 116.554688 "/>
<path style=" stroke:none;fill-rule:nonzero;fill:rgb(3.921569%,3.529412%,3.921569%);fill-opacity:1;" d="M 174.789062 116.554688 L 182.257812 116.554688 L 182.257812 123.644531 L 174.789062 123.644531 Z M 174.789062 116.554688 "/>
<path style=" stroke:none;fill-rule:nonzero;fill:rgb(3.921569%,3.529412%,3.921569%);fill-opacity:1;" d="M 147.460938 70.96875 C 147.460938 63.632812 142.957031 57.691406 137.40625 57.691406 L 113.1875 57.691406 C 107.632812 57.691406 103.132812 63.632812 103.132812 70.96875 L 103.132812 72.304688 C 103.132812 79.640625 107.632812 85.585938 113.1875 85.585938 L 137.402344 85.585938 C 142.957031 85.585938 147.457031 79.640625 147.457031 72.304688 L 147.457031 70.96875 Z M 121.011719 79.441406 L 121.011719 63.835938 L 134.078125 71.636719 Z M 121.011719 79.441406 "/>
<path style=" stroke:none;fill-rule:nonzero;fill:rgb(3.921569%,3.529412%,3.921569%);fill-opacity:1;" d="M 73.539062 11.601562 L 80.539062 11.601562 L 80.539062 16.53125 L 73.539062 16.53125 Z M 73.539062 11.601562 "/>
<path style=" stroke:none;fill-rule:nonzero;fill:rgb(3.921569%,3.529412%,3.921569%);fill-opacity:1;" d="M 82.40625 11.601562 L 89.40625 11.601562 L 89.40625 16.53125 L 82.40625 16.53125 Z M 82.40625 11.601562 "/>
<path style=" stroke:none;fill-rule:nonzero;fill:rgb(3.921569%,3.529412%,3.921569%);fill-opacity:1;" d="M 197.816406 125.5625 L 233.605469 125.5625 L 233.605469 134.386719 L 197.816406 134.386719 Z M 197.816406 125.5625 "/>
<path style=" stroke:none;fill-rule:nonzero;fill:rgb(3.921569%,3.529412%,3.921569%);fill-opacity:1;" d="M 22.542969 125.5625 L 58.332031 125.5625 L 58.332031 134.386719 L 22.542969 134.386719 Z M 22.542969 125.5625 "/>
<path style=" stroke:none;fill-rule:nonzero;fill:rgb(3.921569%,3.529412%,3.921569%);fill-opacity:1;" d="M 197.816406 107.914062 L 233.605469 107.914062 L 233.605469 116.738281 L 197.816406 116.738281 Z M 197.816406 107.914062 "/>
<path style=" stroke:none;fill-rule:nonzero;fill:rgb(3.921569%,3.529412%,3.921569%);fill-opacity:1;" d="M 22.542969 107.914062 L 58.332031 107.914062 L 58.332031 116.738281 L 22.542969 116.738281 Z M 22.542969 107.914062 "/>
</g>
</svg>
